<?xml version="1.0" encoding="UTF-8" standalone="no"?>
<!-- Created with Inkscape (http://www.inkscape.org/) -->

<svg
   xmlns:dc="http://purl.org/dc/elements/1.1/"
   xmlns:cc="http://creativecommons.org/ns#"
   xmlns:rdf="http://www.w3.org/1999/02/22-rdf-syntax-ns#"
   xmlns:svg="http://www.w3.org/2000/svg"
   xmlns="http://www.w3.org/2000/svg"
   xmlns:sodipodi="http://sodipodi.sourceforge.net/DTD/sodipodi-0.dtd"
   xmlns:inkscape="http://www.inkscape.org/namespaces/inkscape"
   width="6.2969565cm"
   height="4.2034545cm"
   viewBox="0 0 223.12051 148.94129"
   id="svg2"
   version="1.1"
   inkscape:version="0.92.3 (2405546, 2018-03-11)"
   sodipodi:docname="logotipo.svg">
  <defs
     id="defs4" />
  <sodipodi:namedview
     id="base"
     pagecolor="#ffffff"
     bordercolor="#666666"
     borderopacity="1.0"
     inkscape:pageopacity="0.0"
     inkscape:pageshadow="2"
     inkscape:zoom="1.6502439"
     inkscape:cx="232.61496"
     inkscape:cy="84.7204"
     inkscape:document-units="px"
     inkscape:current-layer="layer1"
     showgrid="false"
     inkscape:window-width="1600"
     inkscape:window-height="837"
     inkscape:window-x="-8"
     inkscape:window-y="-8"
     inkscape:window-maximized="1"
     inkscape:snap-page="true"
     inkscape:snap-grids="false"
     fit-margin-top="0"
     fit-margin-left="0"
     fit-margin-right="0"
     fit-margin-bottom="0"
     units="cm" />
  <metadata
     id="metadata7">
    <rdf:RDF>
      <cc:Work
         rdf:about="">
        <dc:format>image/svg+xml</dc:format>
        <dc:type
           rdf:resource="http://purl.org/dc/dcmitype/StillImage" />
        <dc:title></dc:title>
      </cc:Work>
    </rdf:RDF>
  </metadata>
  <g
     inkscape:label="Capa 1"
     inkscape:groupmode="layer"
     id="layer1"
     transform="translate(104.84624,1.8750208)">
    <g
       id="g4711"
       transform="translate(-35.390655,0.28046289)">
      <g
         style="stroke-width:1.02776134"
         transform="matrix(0.93674396,0,0,1.0106346,-69.367384,-12.101873)"
         id="g4147">
        <path
           style="font-style:normal;font-variant:normal;font-weight:normal;font-stretch:normal;font-size:180px;line-height:125%;font-family:sans-serif;-inkscape-font-specification:'sans-serif, Normal';text-align:start;letter-spacing:0px;word-spacing:0px;writing-mode:lr-tb;text-anchor:start;fill:#000000;fill-opacity:1;stroke:none;stroke-width:1.02776134px;stroke-linecap:butt;stroke-linejoin:miter;stroke-opacity:1"
           d="M 53.58008,25.882812 101.2168,156.75195 H 82.67188 L 69.83984,120.27734 H 13.238281 L 0.40625,156.75195 h -17.666016 l 186.999996,1.00196 z M 41.53906,41.087891 18.511719,105.33594 H 64.47852 Z"
           id="text4136"
           inkscape:connector-curvature="0" />
        <path
           sodipodi:nodetypes="ccccccccccc"
           style="font-style:normal;font-variant:normal;font-weight:normal;font-stretch:normal;font-size:180px;line-height:125%;font-family:sans-serif;-inkscape-font-specification:'sans-serif, Normal';text-align:start;letter-spacing:0px;word-spacing:0px;writing-mode:lr-tb;text-anchor:start;fill:#000000;fill-opacity:1;stroke:none;stroke-width:1.02776134px;stroke-linecap:butt;stroke-linejoin:miter;stroke-opacity:1"
           d="m 155.01634,20.253212 v 0 l -49.325,44.125195 24.61199,27.512659 42.38124,-37.91477 10.31439,11.527908 -42.38126,37.914766 42.01677,46.96734 -12.97109,11.60319 66.06269,-58.76243 z"
           id="text4141"
           inkscape:connector-curvature="0" />
        <path
           style="opacity:0.01000001;fill:#d0d094;fill-opacity:1;stroke:#ffffff;stroke-width:1.02776134;stroke-opacity:1"
           d="m 149.63075,18.082967 c -5.8161,2.23969 -11.57881,4.591189 -17.23242,7.214843 -1.09829,0.606847 -2.21095,1.18824 -3.29492,1.820313 -4.0908,2.385394 -8.18226,4.76903 -12.22657,7.232422 -3.76593,2.293826 -7.20188,5.198738 -10.60351,7.988281 -3.44749,3.075208 -7.07335,5.930646 -10.76953,8.697266 -2.51628,1.817482 -4.80686,3.904741 -7.16211,5.916015 -1.55685,1.381085 -2.91799,2.946576 -4.33008,4.472657 -1.54065,1.310824 -2.89281,2.764068 -3.6875,4.636719 -0.519,1.503514 -0.55373,3.099006 -0.57813,4.671874 0.23691,1.630292 -0.43196,3.038328 -0.83007,4.566407 -0.4574,1.942058 -0.53934,3.944976 -0.58594,5.93164 0.0762,0.962762 0.0404,1.455999 0.43359,2.38086 1.18803,2.79442 3.93933,5.284563 5.99414,7.453125 3.37222,3.54058 6.85026,6.982814 9.77149,10.914061 1.72677,2.63254 3.33942,5.31795 5.20508,7.85742 2.59508,3.49709 5.63755,6.58788 8.76562,9.59961 4.09329,3.7627 8.37048,7.31889 12.65234,10.86328 5.62812,4.57387 11.29297,9.11707 16.28907,14.38672 4.22647,5.03165 7.69391,10.62382 11.28125,16.11133 2.56903,4.27804 5.63792,8.21761 8.42968,12.3457 1.26344,2.06908 2.38024,4.21567 3.61329,6.30273 2.37961,3.47872 5.14198,6.6945 7.80664,9.96094 3.17022,4.07184 6.79064,7.67987 10.82226,10.88672 6.07568,4.29088 12.46844,8.14325 18.86719,11.93555 4.78778,3.04512 9.67741,5.90244 14.69531,8.54882 3.67928,1.81319 7.327,3.69412 11.2168,5.01758 l 1.10547,0.39844 9.15234,-6.18555 -1.16211,-0.40625 c -3.93403,-1.14555 -7.58316,-2.98161 -11.27148,-4.74218 -5.01158,-2.6635 -9.96589,-5.43636 -14.78711,-8.4336 -6.38217,-3.70211 -12.73938,-7.51682 -18.71485,-11.84765 -3.92924,-3.19275 -7.4562,-6.7876 -10.625,-10.74219 32.46929,-43.50975 24.38358,14.51508 -11.28125,-16.25196 -2.90744,-4.04142 -6.00329,-7.95264 -8.61718,-12.19921 -3.6415,-5.53048 -7.11186,-11.1928 -11.40039,-16.26172 -5.03365,-5.28367 -10.74626,-9.83343 -16.34961,-14.49414 -4.20744,-3.56631 -8.38816,-7.1703 -12.45508,-10.89648 -3.07189,-2.96624 -6.11322,-5.97518 -8.60547,-9.46289 -1.80748,-2.58425 -3.43952,-5.279696 -5.23047,-7.875003 -3.00769,-3.925865 -6.58775,-7.331043 -9.94922,-10.947266 -1.97424,-2.09173 -4.47305,-4.319304 -5.5,-7.09375 -0.28722,-0.775087 -0.24494,-1.305941 -0.27734,-2.111328 0.0881,-1.918573 0.19728,-3.854078 0.73828,-5.708984 0.4857,-1.58491 0.8578,-3.147662 0.72266,-4.824219 0.0498,-1.444061 0.12439,-2.911302 0.77539,-4.232422 0.96908,-1.679548 2.40707,-2.963732 3.76953,-4.322265 1.40043,-1.503538 2.80192,-3.00345 4.35351,-4.355469 2.29204,-2.035374 4.6562,-3.982689 7.11524,-5.814453 3.62855,-2.764974 7.14223,-5.669208 10.58203,-8.666016 2.44806,-1.990308 4.905,-3.977308 7.49219,-5.78711 0.59539,-0.416488 1.87771,-1.185509 2.64843,-1.673828 4.75469,-2.175699 9.57599,-4.194886 14.51563,-5.923828 z m -25.47461,13.80664 c -1.10439,0.646928 -2.19345,1.325246 -3.32617,1.917969 -1.10226,0.576782 2.15254,-1.248594 3.22851,-1.873047 0.0324,-0.01526 0.0652,-0.02967 0.0977,-0.04492 z"
           id="path4147"
           inkscape:connector-curvature="0"
           sodipodi:nodetypes="ccssccccccccsccccccccccccccccccccccccccccccccccccccsccccscc" />
        <ellipse
           style="opacity:0.01000001;fill:#a090b4;fill-opacity:1;stroke:#ffffff;stroke-width:1.02776134;stroke-opacity:1"
           id="path4239"
           cx="-15.667912"
           cy="91.774048"
           rx="21.192457"
           ry="19.867929" />
        <path
           style="fill:#000000;fill-rule:evenodd;stroke:#000000;stroke-width:1.02776134px;stroke-linecap:butt;stroke-linejoin:miter;stroke-opacity:1"
           d="m 79.415782,69.290602 0.107656,-13.108961 6.630859,7.572265 60.183593,-52.707031 z"
           id="rect4247"
           inkscape:connector-curvature="0"
           sodipodi:nodetypes="ccccc" />
      </g>
      <g
         id="g4688">
        <path
           style="fill:none;fill-rule:evenodd;stroke:#000000;stroke-width:0.93749964px;stroke-linecap:butt;stroke-linejoin:miter;stroke-opacity:1"
           d="M 75.843232,8.7138989 67.713747,-0.49101759"
           id="path4579"
           inkscape:connector-curvature="0"
           sodipodi:nodetypes="cc" />
      </g>
    </g>
    <rect
       style="fill:#5571ff;fill-opacity:0.32663317;fill-rule:evenodd;stroke:#000000;stroke-width:0.93749964px;stroke-linecap:butt;stroke-linejoin:miter;stroke-opacity:1"
       id="rect4551"
       width="222.18301"
       height="148.0038"
       x="-104.37749"
       y="-1.406271" />
  </g>
</svg>
